<mxfile host="Electron" agent="Mozilla/5.0 (Macintosh; Intel Mac OS X 10_15_7) AppleWebKit/537.36 (KHTML, like Gecko) draw.io/24.7.17 Chrome/128.0.6613.36 Electron/32.0.1 Safari/537.36" version="24.7.17">
  <diagram name="Page-1" id="jb4_o7GKBZ9PpE6Rr2rg">
    <mxGraphModel dx="1114" dy="821" grid="1" gridSize="10" guides="1" tooltips="1" connect="1" arrows="1" fold="1" page="1" pageScale="1" pageWidth="827" pageHeight="1169" math="0" shadow="0">
      <root>
        <mxCell id="0" />
        <mxCell id="1" parent="0" />
        <mxCell id="LtXcYkf6LYG60PlEspvC-1" value="Producer&amp;lt;Animal&amp;gt;" style="rounded=0;whiteSpace=wrap;html=1;" vertex="1" parent="1">
          <mxGeometry x="230" y="60" width="120" height="30" as="geometry" />
        </mxCell>
        <mxCell id="LtXcYkf6LYG60PlEspvC-9" style="edgeStyle=orthogonalEdgeStyle;rounded=0;orthogonalLoop=1;jettySize=auto;html=1;entryX=0.5;entryY=0;entryDx=0;entryDy=0;endArrow=block;endFill=1;" edge="1" parent="1" source="LtXcYkf6LYG60PlEspvC-2" target="LtXcYkf6LYG60PlEspvC-5">
          <mxGeometry relative="1" as="geometry" />
        </mxCell>
        <mxCell id="LtXcYkf6LYG60PlEspvC-2" value="Consumer&amp;lt;Animal&amp;gt;" style="rounded=0;whiteSpace=wrap;html=1;fillColor=#dae8fc;strokeColor=#6c8ebf;" vertex="1" parent="1">
          <mxGeometry x="390" y="60" width="120" height="30" as="geometry" />
        </mxCell>
        <mxCell id="LtXcYkf6LYG60PlEspvC-3" value="Animal" style="rounded=0;whiteSpace=wrap;html=1;" vertex="1" parent="1">
          <mxGeometry x="70" y="60" width="120" height="30" as="geometry" />
        </mxCell>
        <mxCell id="LtXcYkf6LYG60PlEspvC-8" style="edgeStyle=orthogonalEdgeStyle;rounded=0;orthogonalLoop=1;jettySize=auto;html=1;entryX=0.5;entryY=1;entryDx=0;entryDy=0;endArrow=block;endFill=1;" edge="1" parent="1" source="LtXcYkf6LYG60PlEspvC-4" target="LtXcYkf6LYG60PlEspvC-1">
          <mxGeometry relative="1" as="geometry" />
        </mxCell>
        <mxCell id="LtXcYkf6LYG60PlEspvC-4" value="Producer&amp;lt;Cat&amp;gt;" style="rounded=0;whiteSpace=wrap;html=1;fillColor=#dae8fc;strokeColor=#6c8ebf;" vertex="1" parent="1">
          <mxGeometry x="230" y="150" width="120" height="30" as="geometry" />
        </mxCell>
        <mxCell id="LtXcYkf6LYG60PlEspvC-5" value="Consumer&amp;lt;Cat&amp;gt;" style="rounded=0;whiteSpace=wrap;html=1;" vertex="1" parent="1">
          <mxGeometry x="390" y="150" width="120" height="30" as="geometry" />
        </mxCell>
        <mxCell id="LtXcYkf6LYG60PlEspvC-7" style="edgeStyle=orthogonalEdgeStyle;rounded=0;orthogonalLoop=1;jettySize=auto;html=1;entryX=0.5;entryY=1;entryDx=0;entryDy=0;endArrow=block;endFill=1;" edge="1" parent="1" source="LtXcYkf6LYG60PlEspvC-6" target="LtXcYkf6LYG60PlEspvC-3">
          <mxGeometry relative="1" as="geometry" />
        </mxCell>
        <mxCell id="LtXcYkf6LYG60PlEspvC-6" value="Cal" style="rounded=0;whiteSpace=wrap;html=1;fillColor=#dae8fc;strokeColor=#6c8ebf;" vertex="1" parent="1">
          <mxGeometry x="70" y="150" width="120" height="30" as="geometry" />
        </mxCell>
        <mxCell id="LtXcYkf6LYG60PlEspvC-10" value="공변성" style="text;html=1;align=center;verticalAlign=middle;whiteSpace=wrap;rounded=0;" vertex="1" parent="1">
          <mxGeometry x="290" y="110" width="60" height="20" as="geometry" />
        </mxCell>
        <mxCell id="LtXcYkf6LYG60PlEspvC-11" value="반공변성" style="text;html=1;align=center;verticalAlign=middle;whiteSpace=wrap;rounded=0;" vertex="1" parent="1">
          <mxGeometry x="450" y="110" width="60" height="20" as="geometry" />
        </mxCell>
      </root>
    </mxGraphModel>
  </diagram>
</mxfile>
